# xmcd CD database file
#
# Track frame offsets:
#	150
#	24450
#	47250
#	89445
#	114310
#	132695
#	157580
#	185840
#	207130
#	243937
#	283127
#	321130
#
# Disc length: 4661 seconds
#
# Revision: 0
# Processed by: cddbd v1.5.1PL0 Copyright (c) Steve Scherf et al.
# Submitted via: CDex 1.51
#
DISCID=9f12330c
DTITLE=Omnibas - Rare Tracks - The Other Side Of Blue Note 4000 Series Disc1
DYEAR=1900
DGENRE=Jazz
TTITLE0=Little Girl Blue
TTITLE1='S Wonderful
TTITLE2=Moanin' [alt. take]
TTITLE3=Just A Penny'
TTITLE4=Eboo
TTITLE5=Comin' Up [alt. take]
TTITLE6=Formidable
TTITLE7=How Did It Happen
TTITLE8=It's Only A Paper Moon
TTITLE9=There Is No Greater Love
TTITLE10=Swingin'
TTITLE11=It's Only A Paper Moon [alt. take]
EXTD=
EXTT0=
EXTT1=
EXTT2=
EXTT3=
EXTT4=
EXTT5=
EXTT6=
EXTT7=
EXTT8=
EXTT9=
EXTT10=
EXTT11=
PLAYORDER=
